<?xml version="1.0" encoding="UTF-8" standalone="no"?> <svg xmlns="http://www.w3.org/2000/svg" xmlns:xlink="http://www.w3.org/1999/xlink" version="1.1" width="500" height="500" viewBox="0 0 500 500" xml:space="preserve"> <desc>Created with Fabric.js 3.6.3</desc> <defs> </defs> <g transform="matrix(1 0 0 1 250.25 256.25)" style=""><path fill="#ffffff" opacity="1" d="M-195.98 18.49L-195.98-32.70L-204.54-32.70L-204.54 26.62L-176.32 26.62L-176.32 18.49Z"></path><path fill="#ffffff" opacity="1" d="M-156.49 18.57L-156.49 0.44L-137.59 0.44L-137.59-7.45L-156.49-7.45L-156.49-24.65L-135.98-24.65L-135.98-32.70L-165.05-32.70L-165.05 26.62L-135.13 26.62L-135.13 18.57Z"></path><path fill="#ffffff" opacity="1" d="M-95.39 26.62L-85.89 26.62L-98.78 3.91C-92.00 1.45-88.10-4.90-88.10-14.14C-88.10-25.92-94.54-32.70-105.90-32.70L-121.23-32.70L-121.23 26.62L-112.68 26.62L-112.68 5.10L-107.34 5.10ZM-112.68-24.57L-105.98-24.57C-100.05-24.57-96.91-21.01-96.91-13.97C-96.91-6.94-100.05-3.04-106.06-3.04L-112.68-3.04Z"></path><path fill="#ffffff" opacity="1" d="M-44.88-32.70L-78.27-32.70L-78.27-24.57L-65.98-24.57L-65.98 26.62L-57.25 26.62L-57.25-24.57L-44.88-24.57Z"></path><path fill="#ffffff" opacity="1" d="M-33.26-32.70L-33.26 26.62L-24.70 26.62L-24.70-32.70Z"></path><path fill="#ffffff" opacity="1" d="M5.47 27.73C16.57 27.73 22.76 20.18 22.76 11.37C22.76-7.02-2.16-7.02-2.16-18.63C-2.16-22.87 0.64-25.58 5.47-25.58C10.04-25.58 13.01-22.87 13.18-17.19L21.91-17.19C21.65-27.28 15.55-33.80 5.38-33.80C-4.62-33.80-10.89-27.36-10.89-18.80C-10.89-1.17 13.94-0.50 13.94 11.28C13.94 16.03 11.14 19.42 5.47 19.42C0.21 19.42-3.09 16.45-3.18 10.35L-11.91 10.35C-11.82 21.20-5.04 27.73 5.47 27.73Z"></path><path fill="#ffffff" opacity="1" d="M43.69 18.57L43.69 0.44L62.59 0.44L62.59-7.45L43.69-7.45L43.69-24.65L64.20-24.65L64.20-32.70L35.13-32.70L35.13 26.62L65.05 26.62L65.05 18.57Z"></path><path fill="#ffffff" opacity="1" d="M105.64-32.70L105.64-9.56C105.64-4.31 106.15 4.59 106.83 10.44L106.57 10.61C105.13 7.05 102.93 1.54 101.15-2.45L87.50-32.70L78.94-32.70L78.94 26.62L87.42 26.62L87.42 3.74C87.42-1.85 87.00-10.75 86.40-16.68L86.66-16.85C88.10-13.04 90.56-6.85 92.34-2.45L105.56 26.62L114.12 26.62L114.12-32.70Z"></path><path fill="#ffffff" opacity="1" d="M159.63-32.70L126.24-32.70L126.24-24.57L138.52-24.57L138.52 26.62L147.25 26.62L147.25-24.57L159.63-24.57Z"></path><path fill="#ffffff" opacity="1" d="M188.10 27.73C199.46 27.73 206.24 20.18 206.24 7.81L206.24-13.89C206.24-26.26 199.46-33.80 188.10-33.80C176.75-33.80 169.97-26.26 169.97-13.89L169.97 7.81C169.97 20.18 176.75 27.73 188.10 27.73ZM188.10 19.33C181.92 19.33 178.78 15.27 178.78 7.81L178.78-13.89C178.78-21.35 181.92-25.41 188.10-25.41C194.20-25.41 197.43-21.35 197.43-13.89L197.43 7.81C197.43 15.27 194.20 19.33 188.10 19.33Z"></path></g><g transform="matrix(2.3726423673119097 0 0 2.3726423673119097 250 139.00017812611327)"> <path style="stroke: none; stroke-width: 0; stroke-dasharray: none; stroke-linecap: butt; stroke-dashoffset: 0; stroke-linejoin: miter; stroke-miterlimit: 4; fill: rgb(255,255,255); fill-rule: nonzero; opacity: 1;" transform=" translate(-49.5, -45.525000000000006)" d="M 52.8 21.7 c -1.8 -1.8 -4.7 -1.8 -6.4 0 L 6 62 c -2 2 -2 5.2 0 7.2 c 2 2 5.2 2 7.2 0 l 33.1 -33.1 c 1.8 -1.8 4.7 -1.8 6.4 0 l 33.1 33.1 c 2 2 5.2 2 7.2 0 c 2 -2 2 -5.2 0 -7.2 L 52.8 21.7 z" stroke-linecap="round"></path> </g> <g transform="matrix(1 0 0 1 248.08935505964973 310.3654872953671)" style=""><path fill="#ffffff" opacity="1" d="M-191.38 11.42L-188.77 11.42L-195.02 1.35C-191.53 0.70-189.42-2.14-189.42-6.57C-189.42-11.30-192.00-14.03-196.69-14.03L-202.51-14.03L-202.51 11.42L-200.25 11.42L-200.25 1.50L-197.45 1.50ZM-200.25-11.92L-196.69-11.92C-193.42-11.92-191.71-10.06-191.71-6.43C-191.71-2.68-193.42-0.61-196.73-0.61L-200.25-0.61Z"></path><path fill="#ffffff" opacity="1" d="M-182.70 9.35L-182.70-0.47L-173.72-0.47L-173.72-2.54L-182.70-2.54L-182.70-11.95L-173.10-11.95L-173.10-14.03L-184.95-14.03L-184.95 11.42L-172.70 11.42L-172.70 9.35Z"></path><path fill="#ffffff" opacity="1" d="M-162.19 11.86C-158.01 11.86-155.43 9.17-155.07 4.51L-157.25 4.51C-157.61 8.04-159.29 9.82-162.19 9.82C-164.99 9.82-166.96 8.00-166.96 4.22L-166.96-6.83C-166.96-10.61-165.07-12.43-162.34-12.43C-159.47-12.43-157.72-10.72-157.47-7.12L-155.29-7.12C-155.54-11.85-158.20-14.46-162.34-14.46C-166.34-14.46-169.14-11.74-169.14-6.83L-169.14 4.22C-169.14 9.13-166.26 11.86-162.19 11.86Z"></path><path fill="#ffffff" opacity="1" d="M-139.87 11.42L-137.26 11.42L-143.51 1.35C-140.02 0.70-137.91-2.14-137.91-6.57C-137.91-11.30-140.49-14.03-145.18-14.03L-151.00-14.03L-151.00 11.42L-148.74 11.42L-148.74 1.50L-145.95 1.50ZM-148.74-11.92L-145.18-11.92C-141.91-11.92-140.20-10.06-140.20-6.43C-140.20-2.68-141.91-0.61-145.22-0.61L-148.74-0.61Z"></path><path fill="#ffffff" opacity="1" d="M-126.90 11.75C-122.83 11.75-119.95 9.06-119.95 3.89L-119.95-14.03L-122.21-14.03L-122.21 3.89C-122.21 7.82-124.14 9.57-126.90 9.57C-129.66 9.57-131.59 7.82-131.59 3.89L-131.59-14.03L-133.84-14.03L-133.84 3.89C-133.84 9.06-130.97 11.75-126.90 11.75Z"></path><path fill="#ffffff" opacity="1" d="M-114.76-14.03L-114.76 11.42L-112.50 11.42L-112.50-14.03Z"></path><path fill="#ffffff" opacity="1" d="M-95.60-14.03L-109.05-14.03L-109.05-11.92L-103.45-11.92L-103.45 11.42L-101.20 11.42L-101.20-11.92L-95.60-11.92Z"></path><path fill="#ffffff" opacity="1" d="M-76.44-14.03L-80.99-3.05C-81.64-1.41-82.55 1.20-83.02 2.62L-83.17 2.62C-83.64 1.20-84.55-1.41-85.20-3.05L-89.75-14.03L-92.15-14.03L-92.15 11.42L-89.89 11.42L-89.89-2.03C-89.89-4.72-89.97-6.97-90.11-9.23L-89.97-9.26C-89.31-7.45-88.29-5.01-87.35-2.58L-84.22 5.42L-81.97 5.42L-78.84-2.58C-77.90-5.01-76.88-7.45-76.23-9.26L-76.08-9.23C-76.23-6.97-76.30-4.72-76.30-2.03L-76.30 11.42L-74.04 11.42L-74.04-14.03Z"></path><path fill="#ffffff" opacity="1" d="M-66.19 9.35L-66.19-0.47L-57.21-0.47L-57.21-2.54L-66.19-2.54L-66.19-11.95L-56.60-11.95L-56.60-14.03L-68.45-14.03L-68.45 11.42L-56.20 11.42L-56.20 9.35Z"></path><path fill="#ffffff" opacity="1" d="M-40.17-14.03L-40.17-0.29C-40.17 1.90-39.99 5.20-39.88 7.06L-39.99 7.09C-40.57 5.64-41.88 2.62-42.75 0.80L-49.62-14.03L-51.94-14.03L-51.94 11.42L-49.69 11.42L-49.69-2.83C-49.69-4.83-49.80-7.74-49.87-9.66L-49.76-9.70C-49.29-8.43-47.98-5.23-47.18-3.52L-40.24 11.42L-37.91 11.42L-37.91-14.03Z"></path><path fill="#ffffff" opacity="1" d="M-21.01-14.03L-34.46-14.03L-34.46-11.92L-28.86-11.92L-28.86 11.42L-26.61 11.42L-26.61-11.92L-21.01-11.92Z"></path><path fill="#ffffff" opacity="1" d=""></path><path fill="#ffffff" opacity="1" d="M7.67 11.42C6.69 9.93 5.49 8.22 4.18 6.48C5.23 4.66 5.96 2.69 6.47 1.20L3.96 1.20C3.67 2.15 3.24 3.28 2.69 4.40C1.09 2.26-0.47 0.08-1.82-1.96C0.36-3.99 2.51-6.10 2.62-9.08C2.69-11.81 1.16-14.50-2.47-14.50C-5.82-14.50-7.56-12.24-7.56-9.48C-7.56-7.45-6.43-5.01-4.73-2.32C-7.02-0.21-9.23 2.19-9.23 5.75C-9.23 9.64-6.72 11.89-3.42 11.89C-0.69 11.89 1.34 10.36 2.91 8.37C3.63 9.38 4.33 10.40 5.02 11.42ZM-5.31-9.41C-5.31-11.01-4.29-12.32-2.47-12.32C-0.69-12.32 0.36-10.90 0.36-9.16C0.36-7.12-1.20-5.52-3.05-3.85C-4.40-6.10-5.31-8.06-5.31-9.41ZM-3.20 9.71C-5.23 9.71-6.83 8.00-6.83 5.49C-6.83 3.13-5.31 1.31-3.49-0.43C-2.00 1.75-0.25 4.04 1.49 6.44C0.25 8.26-1.34 9.71-3.20 9.71Z"></path><path fill="#ffffff" opacity="1" d=""></path><path fill="#ffffff" opacity="1" d="M31.19-14.03L31.19-2.58L22.14-2.58L22.14-14.03L19.88-14.03L19.88 11.42L22.14 11.42L22.14-0.47L31.19-0.47L31.19 11.42L33.44 11.42L33.44-14.03Z"></path><path fill="#ffffff" opacity="1" d="M41.29 9.35L41.29-0.47L50.27-0.47L50.27-2.54L41.29-2.54L41.29-11.95L50.89-11.95L50.89-14.03L39.04-14.03L39.04 11.42L51.29 11.42L51.29 9.35Z"></path><path fill="#ffffff" opacity="1" d="M66.59 11.42L68.99 11.42L62.30-14.03L59.83-14.03L53.14 11.42L55.54 11.42L57.03 5.46L65.10 5.46ZM57.54 3.42L60.16-7.12C60.56-8.68 60.92-10.50 61.03-11.12L61.10-11.12C61.21-10.50 61.58-8.68 61.98-7.12L64.59 3.42Z"></path><path fill="#ffffff" opacity="1" d="M72.19 11.42L77.90 11.42C82.62 11.42 85.46 8.69 85.46 4.00L85.46-6.57C85.46-11.30 82.70-14.03 77.90-14.03L72.19-14.03ZM74.44 9.27L74.44-11.88L77.90-11.88C81.31-11.88 83.21-10.06 83.21-6.47L83.21 3.89C83.21 7.46 81.28 9.27 77.90 9.27Z"></path><path fill="#ffffff" opacity="1" d="M101.67-14.03L101.67-2.58L92.62-2.58L92.62-14.03L90.37-14.03L90.37 11.42L92.62 11.42L92.62-0.47L101.67-0.47L101.67 11.42L103.92 11.42L103.92-14.03Z"></path><path fill="#ffffff" opacity="1" d="M116.07 11.75C120.14 11.75 123.01 9.06 123.01 3.89L123.01-14.03L120.75-14.03L120.75 3.89C120.75 7.82 118.83 9.57 116.07 9.57C113.30 9.57 111.38 7.82 111.38 3.89L111.38-14.03L109.12-14.03L109.12 3.89C109.12 9.06 111.99 11.75 116.07 11.75Z"></path><path fill="#ffffff" opacity="1" d="M139.98-14.03L139.98-0.29C139.98 1.90 140.17 5.20 140.27 7.06L140.17 7.09C139.58 5.64 138.28 2.62 137.40 0.80L130.53-14.03L128.21-14.03L128.21 11.42L130.46 11.42L130.46-2.83C130.46-4.83 130.35-7.74 130.28-9.66L130.39-9.70C130.86-8.43 132.17-5.23 132.97-3.52L139.91 11.42L142.24 11.42L142.24-14.03Z"></path><path fill="#ffffff" opacity="1" d="M159.14-14.03L145.69-14.03L145.69-11.92L151.29-11.92L151.29 11.42L153.54 11.42L153.54-11.92L159.14-11.92Z"></path><path fill="#ffffff" opacity="1" d="M162.59-14.03L162.59 11.42L164.85 11.42L164.85-14.03Z"></path><path fill="#ffffff" opacity="1" d="M182.22-14.03L182.22-0.29C182.22 1.90 182.40 5.20 182.51 7.06L182.40 7.09C181.82 5.64 180.51 2.62 179.64 0.80L172.77-14.03L170.45-14.03L170.45 11.42L172.70 11.42L172.70-2.83C172.70-4.83 172.59-7.74 172.52-9.66L172.63-9.70C173.10-8.43 174.41-5.23 175.21-3.52L182.15 11.42L184.48 11.42L184.48-14.03Z"></path><path fill="#ffffff" opacity="1" d="M196.44 11.78C200.58 11.78 203.49 9.06 203.49 4.44L203.49-2.14L196.40-2.14L196.40-0.10L201.34-0.10L201.34 4.44C201.34 7.89 199.34 9.67 196.44 9.67C193.56 9.67 191.56 7.89 191.56 4.08L191.56-6.68C191.56-10.50 193.35-12.28 196.25-12.28C199.09-12.28 200.91-10.65 201.09-7.12L203.27-7.12C203.09-11.81 200.36-14.39 196.25-14.39C192.07-14.39 189.38-11.74 189.38-6.72L189.38 4.08C189.38 9.06 192.29 11.78 196.44 11.78Z"></path></g></svg> 